<svg xmlns="http://www.w3.org/2000/svg" viewBox="0 0 64 64" role="img" aria-labelledby="title desc">
  <title id="title">Cyberpedia Logo</title>
  <desc id="desc">Ein stilisiertes Netzwerk aus verbundenen Punkten in einem Schild.</desc>
  <defs>
    <linearGradient id="g" x1="8" y1="8" x2="56" y2="56" gradientUnits="userSpaceOnUse">
      <stop stop-color="#36d1dc"/>
      <stop offset="1" stop-color="#4263eb"/>
    </linearGradient>
  </defs>
  <path d="M32 4 55 13v17c0 14.4-9.7 24.7-23 30C18.7 54.7 9 44.4 9 30V13L32 4Z" fill="url(#g)"/>
  <g fill="none" stroke="#fff" stroke-width="2.6" stroke-linecap="round">
    <path d="m21 25 10-6 12 8-8 13-14-4Z"/>
    <path d="m31 19 4 21M21 25l14 15m8-13-22 9" opacity=".7"/>
  </g>
  <g fill="#fff">
    <circle cx="21" cy="25" r="3.6"/><circle cx="31" cy="19" r="3.6"/>
    <circle cx="43" cy="27" r="3.6"/><circle cx="35" cy="40" r="3.6"/>
    <circle cx="21" cy="36" r="3.6"/>
  </g>
</svg>
